<svg width="254" height="41" viewBox="0 0 254 41" fill="none" xmlns="http://www.w3.org/2000/svg">
  <!-- Icon scaled so height = 40.7px (matches wordmark). scale=40.7/24=1.6958 -->
  <g transform="scale(1.6958)">
    <path d="m20 9.8h-6.8v-6.8h-6.5c0 3.7-3 6.8-6.7 6.8v6.4h6.7v6.8h6.5c0-3.7 3.1-6.8 6.8-6.8z" fill="#0a0a0a"/>
  </g>
  <!-- Wordmark starts at x = 37.31 + 10 = 47.31 -->
  <g transform="translate(47, 0)">
    <path d="M11.385 16.555V31.295C11.385 32.3216 11.6233 33.0733 12.1 33.55C12.6133 33.99 13.4567 34.21 14.63 34.21H18.205V40.7H13.365C6.875 40.7 3.63 37.5466 3.63 31.24V16.555H2.04891e-08V10.23H3.63V2.69495H11.385V10.23H18.205V16.555H11.385ZM52.0682 24.805C52.0682 25.905 51.9949 26.895 51.8482 27.775H29.5732C29.7566 29.975 30.5266 31.6983 31.8832 32.945C33.2399 34.1916 34.9082 34.815 36.8882 34.815C39.7482 34.815 41.7832 33.5866 42.9932 31.13H51.2982C50.4182 34.0633 48.7316 36.4833 46.2382 38.39C43.7449 40.26 40.6832 41.195 37.0532 41.195C34.1199 41.195 31.4799 40.5533 29.1332 39.27C26.8232 37.95 25.0082 36.0983 23.6882 33.715C22.4049 31.3316 21.7632 28.5816 21.7632 25.465C21.7632 22.3116 22.4049 19.5433 23.6882 17.1599C24.9716 14.7766 26.7682 12.9433 29.0782 11.66C31.3882 10.3766 34.0466 9.73495 37.0532 9.73495C39.9499 9.73495 42.5349 10.3583 44.8082 11.6049C47.1182 12.8516 48.8966 14.6299 50.1432 16.94C51.4266 19.2133 52.0682 21.835 52.0682 24.805ZM44.0932 22.6049C44.0566 20.625 43.3416 19.0483 41.9482 17.8749C40.5549 16.665 38.8499 16.06 36.8332 16.06C34.9266 16.06 33.3132 16.6466 31.9932 17.82C30.7099 18.9566 29.9216 20.5516 29.6282 22.6049H44.0932ZM65.3886 -4.93526e-05V40.7H57.6886V-4.93526e-05H65.3886ZM71.0162 25.355C71.0162 22.275 71.6212 19.5433 72.8312 17.1599C74.0778 14.7766 75.7462 12.9433 77.8362 11.66C79.9628 10.3766 82.3278 9.73495 84.9312 9.73495C87.2045 9.73495 89.1845 10.1933 90.8712 11.1099C92.5945 12.0266 93.9695 13.1816 94.9962 14.5749V10.23H102.751V40.7H94.9962V36.245C94.0062 37.675 92.6312 38.8666 90.8712 39.82C89.1478 40.7366 87.1495 41.195 84.8762 41.195C82.3095 41.195 79.9628 40.535 77.8362 39.215C75.7462 37.895 74.0778 36.0433 72.8312 33.66C71.6212 31.24 71.0162 28.4716 71.0162 25.355ZM94.9962 25.465C94.9962 23.595 94.6295 22 93.8962 20.6799C93.1628 19.3233 92.1728 18.2966 90.9262 17.6C89.6795 16.8666 88.3412 16.4999 86.9112 16.4999C85.4812 16.4999 84.1612 16.8483 82.9512 17.5449C81.7412 18.2416 80.7512 19.2683 79.9812 20.625C79.2478 21.945 78.8812 23.5216 78.8812 25.355C78.8812 27.1883 79.2478 28.8016 79.9812 30.195C80.7512 31.5516 81.7412 32.5966 82.9512 33.33C84.1978 34.0633 85.5178 34.43 86.9112 34.43C88.3412 34.43 89.6795 34.0816 90.9262 33.385C92.1728 32.6516 93.1628 31.625 93.8962 30.305C94.6295 28.9483 94.9962 27.335 94.9962 25.465ZM122.977 33.605L130.677 10.23H138.872L127.597 40.7H118.247L107.027 10.23H115.277L122.977 33.605ZM171.521 24.805C171.521 25.905 171.448 26.895 171.301 27.775H149.026C149.21 29.975 149.98 31.6983 151.336 32.945C152.693 34.1916 154.361 34.815 156.341 34.815C159.201 34.815 161.236 33.5866 162.446 31.13H170.751C169.871 34.0633 168.185 36.4833 165.691 38.39C163.198 40.26 160.136 41.195 156.506 41.195C153.573 41.195 150.933 40.5533 148.586 39.27C146.276 37.95 144.461 36.0983 143.141 33.715C141.858 31.3316 141.216 28.5816 141.216 25.465C141.216 22.3116 141.858 19.5433 143.141 17.1599C144.425 14.7766 146.221 12.9433 148.531 11.66C150.841 10.3766 153.5 9.73495 156.506 9.73495C159.403 9.73495 161.988 10.3583 164.261 11.6049C166.571 12.8516 168.35 14.6299 169.596 16.94C170.88 19.2133 171.521 21.835 171.521 24.805ZM163.546 22.6049C163.51 20.625 162.795 19.0483 161.401 17.8749C160.008 16.665 158.303 16.06 156.286 16.06C154.38 16.06 152.766 16.6466 151.446 17.82C150.163 18.9566 149.375 20.5516 149.081 22.6049H163.546ZM194.027 9.78995C197.657 9.78995 200.59 10.9449 202.827 13.255C205.063 15.5283 206.182 18.7183 206.182 22.825V40.7H198.482V23.8699C198.482 21.45 197.877 19.5983 196.667 18.315C195.457 16.995 193.807 16.335 191.717 16.335C189.59 16.335 187.903 16.995 186.657 18.315C185.447 19.5983 184.842 21.45 184.842 23.8699V40.7H177.142V10.23H184.842V14.025C185.868 12.7049 187.17 11.6783 188.747 10.945C190.36 10.1749 192.12 9.78995 194.027 9.78995Z" fill="#0a0a0a"/>
  </g>
</svg>
